<svg xmlns="http://www.w3.org/2000/svg" xmlns:xlink="http://www.w3.org/1999/xlink" viewBox="0,0,256,256" width="48px" height="48px" fill-rule="nonzero"><g fill="none" fill-rule="nonzero" stroke="none" stroke-width="1" stroke-linecap="butt" stroke-linejoin="miter" stroke-miterlimit="10" stroke-dasharray="" stroke-dashoffset="0" font-family="none" font-weight="none" font-size="none" text-anchor="none" style="mix-blend-mode: normal"><g transform="scale(5.33333,5.33333)"><path d="M44.104,21.491c-2.868,-1.331 -10.104,-8.491 -20.104,-8.491c-10,0 -17.236,7.16 -20.104,8.491c-3.332,1.546 -3.896,3.509 -3.896,4.509c0,1 1,3 5,3c4,0 12.041,5.368 15,5.862c2.922,0.488 4,0.336 4,0.336c0,0 1.078,0.152 4,-0.336c2.959,-0.494 11,-5.862 15,-5.862c4,0 5,-2 5,-3c0,-1 -0.564,-2.963 -3.896,-4.509z" fill="#ffffff"></path><path d="M5,29c4,0 12.041,5.368 15,5.862c2.922,0.488 4,0.336 4,0.336c0,0 1.078,0.152 4,-0.336c2.959,-0.494 11,-5.862 15,-5.862c4,0 5,-2 5,-3h-48c0,1 1,3 5,3z" fill="#ffffff"></path><path d="M38.24,22.439c-3.66,-2.569 -7.389,-5.438 -14.24,-5.439v0h-0.001h-0.001v0c-6.851,0.001 -10.58,2.87 -14.24,5.439c-3.008,2.11 -5.761,2.871 -5.761,3.561c0,1 0.943,0.515 3.009,0.828c1.994,0.302 10.992,4.862 16.992,4.864v0h0.001h0.001v0c6,-0.001 14.998,-4.561 16.992,-4.863c2.066,-0.314 3.009,0.171 3.009,-0.829c0,-0.69 -2.753,-1.451 -5.761,-3.561z" fill="#000000"></path><path d="M33,23c0,-1.626 -0.438,-3.147 -1.192,-4.464c-2.137,-0.916 -4.635,-1.536 -7.808,-1.536v0h-0.001h-0.001v0c-3.171,0 -5.669,0.619 -7.805,1.535c-0.755,1.317 -1.193,2.838 -1.193,4.465c0,3.725 2.263,6.922 5.49,8.289c1.228,0.248 2.418,0.402 3.508,0.402v0h0.001h0.001v0c1.091,0 2.282,-0.154 3.511,-0.403c3.226,-1.367 5.489,-4.563 5.489,-8.288z" fill="#ffffff"></path><circle cx="24" cy="23.5" r="3.5" fill="#000000"></circle><circle cx="24" cy="23.5" r="1" fill="#ffffff"></circle><circle cx="28" cy="20" r="1" fill="#000000"></circle><path d="M7.908,25.255c-0.21,-0.475 -0.703,-0.771 -1.269,-0.957c-1.554,0.806 -2.642,1.268 -2.642,1.702c0,1 0.943,0.515 3.009,0.828c0.124,0.019 0.276,0.054 0.452,0.104c0.428,-0.453 0.733,-1.037 0.45,-1.677z" fill="#000000"></path><path d="M40.09,25.258c0.21,-0.475 0.703,-0.771 1.269,-0.957c1.554,0.807 2.642,1.269 2.642,1.703c0,1 -0.943,0.515 -3.009,0.828c-0.124,0.019 -0.276,0.054 -0.452,0.104c-0.429,-0.453 -0.733,-1.037 -0.45,-1.678z" fill="#000000"></path></g></g></svg>